HIERARCHY
ROOT Hips
{
  OFFSET -101.901 98.7387 -416.281
  CHANNELS 6 Xposition Yposition Zposition Zrotation Xrotation Yrotation
  JOINT RightUpLeg
  {
    OFFSET -8.9458 -8.66707 0.101652
    CHANNELS 3 Zrotation Xrotation Yrotation
    JOINT RightLeg
    {
      OFFSET 0 -44.4227 1.3727
      CHANNELS 3 Zrotation Xrotation Yrotation
      JOINT RightFoot
      {
        OFFSET 0.253549 -42.0924 -1.46059
        CHANNELS 3 Zrotation Xrotation Yrotation
        JOINT RightToes
        {
          OFFSET 0.04 -4.41509 8.4991
          CHANNELS 3 Zrotation Xrotation Yrotation
          End Site
          {
            OFFSET -0.08 -0.137448 9.77979
          }
        }
      }
    }
  }
  JOINT Spine
  {
    OFFSET 0 11.8905 0
    CHANNELS 3 Zrotation Xrotation Yrotation
    JOINT Spine1
    {
      OFFSET 0 25.6574 0.127663
      CHANNELS 3 Zrotation Xrotation Yrotation
      JOINT HEad
      {
        OFFSET 0 8.73416 0.011341
        CHANNELS 3 Zrotation Xrotation Yrotation
        End Site
        {
          OFFSET -0.29 12.7742 2.51395
        }
      }
      JOINT LeftShoulder1
      {
        OFFSET 8.99 -0.362252 -0.22
        CHANNELS 3 Zrotation Xrotation Yrotation
        JOINT LeftArm
        {
          OFFSET 10.2827 -0.00338 0.322123
          CHANNELS 3 Zrotation Xrotation Yrotation
          JOINT LeftForeArm
          {
            OFFSET 32.7669 0.099144 -1.42434
            CHANNELS 3 Zrotation Xrotation Yrotation
            JOINT LeftHand
            {
              OFFSET 27.5643 0.085362 1.02216
              CHANNELS 3 Zrotation Xrotation Yrotation
              End Site
              {
                OFFSET 16.7443 -0.6 1.50291
              }
            }
          }
        }
      }
      JOINT RightShoulder
      {
        OFFSET -8.99 -0.362252 -0.22
        CHANNELS 3 Zrotation Xrotation Yrotation
        JOINT RightArm
        {
          OFFSET -10.2827 -0.00338 0.322123
          CHANNELS 3 Zrotation Xrotation Yrotation
          JOINT RightForeArm
          {
            OFFSET -32.8971 0.099144 -1.42434
            CHANNELS 3 Zrotation Xrotation Yrotation
            JOINT RightHand
            {
              OFFSET -27.4921 0.085362 1.02216
              CHANNELS 3 Zrotation Xrotation Yrotation
              End Site
              {
                OFFSET -16.6312 -0.6 1.50291
              }
            }
          }
        }
      }
    }
  }
  JOINT LeftUpLeg
  {
    OFFSET 8.9458 -8.66707 0.101652
    CHANNELS 3 Zrotation Xrotation Yrotation
    JOINT LeftLeg
    {
      OFFSET 0 -44.4227 1.3727
      CHANNELS 3 Zrotation Xrotation Yrotation
      JOINT LeftFoot
      {
        OFFSET -0.253549 -42.0924 -1.46059
        CHANNELS 3 Zrotation Xrotation Yrotation
        JOINT LeftToes
        {
          OFFSET -0.04 -4.41509 8.4991
          CHANNELS 3 Zrotation Xrotation Yrotation
          End Site
          {
            OFFSET 0.08 -0.047448 9.77979
          }
        }
      }
    }
  }
}
MOTION
Frames:	15
Frame Time:	0.0166667
-78.9889 94.9301 -448.98 -15.0772 -3.36474 -73.4425 -26.0349 2.15951 19.1027 34.3249 30.7953 -37.1517 -22.7696 0.497826 -1.2556 0.0462048 0.000533403 0.662642 -2.27057 22.6152 -1.61808 4.44218e-008 0.00231999 -0.00255001 -8.17318 12.0874 13.8403 -0 -7.95139e-016 -0 -175.213 -61.1384 -145.611 -103.043 58.9999 -13.5498 14.6759 14.1636 -16.1368 15.3018 8.82109 -2.8206 102.189 -12.5146 71.4003 38.5786 55.6138 93.302 21.208 18.9792 -8.5142 21.3656 -10.1623 3.04171 -30.3796 21.2602 57.3159 1.97204 -3.00028 -0.0157589 -1.18447e-009 1.5602e-007 -4.87131e-009 
-79.0522 95.4867 -448.526 -14.773 -3.50966 -73.2571 -26.0617 3.04635 19.0055 33.6988 30.7891 -35.887 -20.3746 0.357747 -1.17154 0.0462048 0.000533403 0.662642 -3.20663 22.9748 -1.13711 -0.00808959 0.0298001 0.01088 -7.60818 11.4416 12.6114 -7.95139e-016 7.95139e-016 1.59028e-015 -169.926 -60.058 -143.05 -104.196 55.1357 -11.4684 8.47895 10.2634 -16.5399 15.2609 8.69971 -3.8097 101.192 -14.2887 71.1263 37.0043 55.7071 96.0975 25.2373 19.8342 -15.787 20.817 -10.1423 2.00835 -30.6165 20.3404 57.2192 2.59687 -2.98058 0.0355099 -1.18447e-009 1.5602e-007 -4.87131e-009 
-79.1013 95.9922 -448.185 -14.4607 -3.63395 -73.0214 -26.0541 3.85804 18.8676 33.6226 31.3449 -34.7509 -18.4389 0.353123 -1.1117 0.0462048 0.000533403 0.662642 -4.22935 23.6343 -0.395419 -0.00993946 0.0242801 0.0167801 -6.85158 10.5641 11.0523 -1.59028e-015 1.59028e-015 -3.18055e-015 -164.784 -58.589 -140.666 -106.274 50.0395 -8.77896 2.40936 5.81737 -17.7481 12.2181 10.0412 -2.99753 102.969 -17.932 72.4418 34.0607 55.5125 100.304 30.2671 19.7697 -23.0991 20.2887 -10.1917 0.917089 -30.5988 19.5156 56.4135 3.06441 -3.05657 0.0647767 -1.18446e-009 1.5602e-007 -4.87132e-009 
-79.1024 96.5137 -448.001 -14.0926 -3.74342 -72.6119 -25.9465 4.64986 18.614 33.7281 31.7004 -33.9743 -19.0431 0.502168 -1.17348 0.0462048 0.000533403 0.662642 -5.50884 25.071 1.33704 -0.0270981 0.0696104 0.0723003 -5.48412 8.93463 8.19789 -1.59028e-015 1.19271e-015 3.18055e-015 -159.84 -56.1602 -138.233 -109.839 41.2954 -5.41338 10.8848 16.7668 -20.0718 2.79569 11.8032 4.84545 109.644 -28.984 77.1421 28.2841 52.103 106.008 37.6225 19.2644 -28.9249 19.5917 -10.429 -0.346576 -29.6413 18.7352 53.3034 3.2088 -3.35024 0.0727668 -1.18447e-009 1.5602e-007 -4.87131e-009 
-79.0307 97.1116 -448.002 -13.7018 -3.8595 -72.0636 -26.0138 5.34199 18.4075 34.0174 31.674 -33.6733 -18.4524 0.606346 -1.16785 0.0462048 0.000533403 0.662642 -7.08041 27.0626 4.04474 -0.028748 0.0599304 0.0733404 -3.74167 6.78395 4.36693 -4.77083e-015 -1.59028e-015 3.18055e-015 -154.949 -52.7941 -135.433 -111.499 30.5551 -3.65768 1.83257 5.01681 -22.0792 3.2838 9.54075 2.72118 101.863 -33.6527 75.3685 21.6742 46.1353 109.895 43.5334 19.3696 -27.007 18.6074 -10.6976 -1.76843 -27.8076 17.8185 48.3134 3.15739 -3.78069 0.0643544 -1.18447e-009 1.5602e-007 -4.87132e-009 
-78.8661 97.6942 -448.187 -13.3228 -4.00619 -71.4337 -26.1241 5.95664 18.2433 34.4389 31.1665 -33.8618 -18.5253 0.687419 -1.18159 0.0462048 0.000533403 0.662642 -9.00928 29.3699 7.70596 -0.0241984 0.0420104 0.0612904 -1.79586 4.2181 -0.252428 1.59028e-015 -1.59028e-015 6.36111e-015 -151.11 -49.3606 -132.109 -114.061 25.2293 -0.144698 6.49322 21.8639 -24.6398 -4.78931 7.93362 8.5304 103.113 -41.2861 76.9749 16.1399 40.7004 102.873 52.0062 24.3982 -20.4777 17.4709 -10.9299 -3.29837 -26.1739 17.0029 44.2266 3.13395 -4.13462 0.0361416 -1.18446e-009 1.5602e-007 -4.87131e-009 
-78.5966 98.2989 -448.564 -12.9831 -4.2056 -70.7835 -26.3201 6.4851 18.1777 35.0581 30.1568 -34.561 -18.4614 0.717009 -1.19384 0.0462048 0.000533403 0.662642 -11.3846 31.8402 12.3311 -0.0230385 0.0344403 0.0553404 0.200228 1.27659 -5.48998 -0 0 6.36111e-015 -147.838 -45.7537 -128.65 -116.605 22.5104 2.64412 5.64311 16.5026 -23.8745 -3.46078 5.39138 3.78666 92.9683 -38.5145 75.0583 9.48688 36.5364 93.4954 40.5732 30.2582 8.1002 16.2623 -11.1247 -4.8631 -24.5776 16.2467 40.9349 3.08004 -4.41404 0.0253459 -1.18446e-009 1.5602e-007 -4.87131e-009 
-78.2364 98.8386 -449.126 -12.6885 -4.47997 -70.1652 -26.5011 6.96235 18.2037 35.5825 28.4377 -35.4721 -18.6032 0.675682 -1.2058 0.0462048 0.000533403 0.662642 -13.2865 33.3057 16.2564 0.011949 -0.0344102 -0.0419901 1.58119 -0.644893 -10.0257 1.76556e-031 -1.59028e-015 6.36111e-015 -145.713 -43.7165 -125.237 -119.202 21.4975 5.20618 8.33142 24.4926 -25.5088 -12.1225 4.09648 7.39235 95.1377 -40.7498 76.2178 2.72779 36.9402 86.4855 31.0308 21.6022 7.26643 15.0328 -11.3134 -6.39283 -22.9417 15.5502 38.3697 2.94496 -4.62887 0.0162013 -1.18446e-009 1.5602e-007 -4.87131e-009 
-77.8447 99.2519 -449.84 -12.4216 -4.8254 -69.6027 -26.6561 7.42342 18.2995 35.8896 26.2547 -36.5356 -18.865 0.582815 -1.21061 0.0462048 0.000533403 0.662642 -14.6657 33.9989 19.4145 0.00997919 -0.0258502 -0.0361801 2.55685 -1.81147 -14.0945 -1.76556e-031 3.18055e-015 3.18055e-015 -146.634 -45.6948 -120.953 -120.736 21.9378 5.95317 2.56631 22.1186 -23.1857 -12.0257 3.68932 3.73965 89.3358 -34.4305 78.1901 2.60669 39.0736 78.4767 17.9638 28.7784 27.0233 13.805 -11.5477 -7.83895 -21.2249 15.0013 36.4686 2.65824 -4.80551 0.00151116 -1.18447e-009 1.5602e-007 -4.87131e-009 
-77.4877 99.5151 -450.675 -12.156 -5.22742 -69.0963 -26.8037 7.91094 18.4348 36.0155 23.9081 -37.7003 -19.0974 0.461967 -1.20471 0.0462048 0.000533403 0.662642 -15.5045 34.0826 21.799 0.00737435 -0.0175202 -0.03016 3.1846 -2.25927 -17.6493 -0 -6.36111e-015 -0 -149.081 -50.0908 -116.041 -126.536 24.6592 9.12491 1.15201 26.8705 -22.956 -21.3648 2.60521 9.57057 94.6013 -35.1036 81.9891 7.92198 40.5779 68.3505 9.56603 23.249 35.4382 12.6382 -11.8246 -9.18411 -19.5032 14.5792 35.1656 2.24458 -4.94341 -0.0156927 -1.18446e-009 1.5602e-007 -4.87132e-009 
-77.221 99.6354 -451.589 -11.8712 -5.65859 -68.6195 -26.9498 8.46016 18.5711 36.0217 21.6184 -38.9175 -19.2237 0.331739 -1.18843 0.0462048 0.000533403 0.662642 -15.8953 33.6859 23.5291 0.00558971 -0.00489011 -0.0182301 3.61947 -2.145 -20.7925 -3.18055e-015 0 6.36111e-015 -149.517 -53.3385 -111.265 -130.877 26.4834 12.2351 15.7204 13.8559 -19.3937 -21.3304 3.52974 7.77254 92.6343 -28.916 87.5999 12.1593 42.4549 66.8524 6.26403 35.7079 38.4154 11.5898 -12.131 -10.437 -17.8764 14.2473 34.3948 1.76023 -5.03598 -0.0320006 -1.18446e-009 1.5602e-007 -4.8713e-009 
-77.0771 99.6327 -452.545 -11.5622 -6.09234 -68.1342 -27.092 9.08832 18.6749 35.9828 19.5138 -40.139 -19.1883 0.202872 -1.16376 0.0462048 0.000533403 0.662642 -15.9033 32.9062 24.6945 0.00418122 0.00395993 -0.0114609 3.93514 -1.57387 -23.5751 0 0 -6.36111e-015 -148.871 -56.2149 -106.352 -129.679 26.8951 12.7189 2.00654 18.7888 -20.8349 -21.4066 4.72482 6.95904 92.0879 -21.7234 93.9097 17.4527 43.378 64.1608 16.9671 30.2203 17.4129 10.6976 -12.4501 -11.6173 -16.4347 13.9815 34.09 1.26927 -5.08157 -0.0454135 -1.18446e-009 1.5602e-007 -4.87131e-009 
-77.0702 99.5297 -453.504 -11.2374 -6.50809 -67.6092 -27.2258 9.79196 18.7242 35.9624 17.6615 -41.3253 -18.9764 0.0826676 -1.13345 0.0462048 0.000533403 0.662642 -15.6032 31.8497 25.3741 0.00290873 0.01387 -0.00520127 4.17814 -0.66533 -26.0233 1.59028e-015 -1.59028e-015 -1.59028e-014 -147.153 -58.8881 -101.06 -130.146 27.4388 14.1794 5.26988 17.5337 -18.387 -21.291 6.17209 6.97953 92.5039 -13.6496 99.818 22.2335 42.9647 60.6326 7.0218 38.1983 37.1921 9.97464 -12.7684 -12.7386 -15.2415 13.7786 34.1809 0.827208 -5.08642 -0.0551558 -1.18447e-009 1.5602e-007 -4.87132e-009 
-77.1996 99.3543 -454.431 -10.9116 -6.89233 -67.0341 -27.3517 10.5493 18.713 36.0114 16.0842 -42.4435 -18.5944 -0.0247609 -1.09999 0.0462048 0.000533403 0.662642 -15.0864 30.5838 25.6217 0.00153034 0.02437 -0.00362097 4.39347 0.508713 -28.1034 -1.59028e-015 -3.18055e-015 -0 -144.265 -61.6579 -94.9337 -126.81 25.6279 13.3727 -5.52154 21.518 -18.6857 -21.4038 7.76828 7.17923 94.5533 -4.9602 105.261 23.1217 43.7653 55.8002 20.5622 33.6962 20.7624 9.41411 -13.0749 -13.8003 -14.3265 13.6467 34.5941 0.472826 -5.05987 -0.0607145 -1.18446e-009 1.5602e-007 -4.87131e-009 
-77.4557 99.1361 -455.293 -10.5999 -7.23442 -66.424 -27.4742 11.3272 18.6498 36.1599 14.7722 -43.4666 -18.0671 -0.117767 -1.06537 0.0462048 0.000533403 0.662642 -14.4416 29.1741 25.4914 -0.000198212 0.03409 -0.00165928 4.58852 1.87467 -29.7823 -1.59028e-015 1.59028e-015 -3.18055e-015 -139.812 -64.6282 -87.4048 -122.646 21.7082 11.829 7.00288 15.3262 -17.5518 -21.5407 9.49269 7.8966 99.0372 3.21375 109.125 22.4943 47.1567 49.9892 19.1312 39.8323 23.5832 9.00247 -13.361 -14.7895 -13.6936 13.5909 35.259 0.229117 -5.01 -0.0614113 -1.18446e-009 1.5602e-007 -4.87131e-009 
